<svg width="288" height="153" fill="none" xmlns="http://www.w3.org/2000/svg"><path d="m17.435 7.144 13.047 55.04c.505 2.127 3.104 2.94 4.677 1.46l46.07-43.352c1.67-1.57.832-4.41-1.433-4.857L20.678 3.747c-2-.395-3.716 1.402-3.243 3.397ZM19.694 130.457l13.047-55.04c.504-2.128 3.104-2.94 4.676-1.46l46.071 43.351c1.67 1.571.832 4.41-1.434 4.858l-59.118 11.687c-2 .396-3.715-1.401-3.242-3.396Z" fill="#538FF7" stroke="#000" stroke-width="1.5"/><rect x="135.684" y="123.828" width="43.666" height="28.422" rx="3.767" fill="#538FF7" stroke="#202124" stroke-width="1.5"/><mask id="b" style="mask-type:alpha" maskUnits="userSpaceOnUse" x="24" y="0" width="264" height="139"><mask id="a" fill="#fff"><path d="M287.935 69.16c0 38.197-59.021 69.161-131.828 69.161S24.278 107.357 24.278 69.161C24.278 30.963 83.3 0 156.107 0c72.807 0 131.828 30.964 131.828 69.16Z"/></mask><path d="M287.935 69.16c0 38.197-59.021 69.161-131.828 69.161S24.278 107.357 24.278 69.161C24.278 30.963 83.3 0 156.107 0c72.807 0 131.828 30.964 131.828 69.16Z" fill="#E3E3E3"/><path d="M286.435 69.16c0 18.262-14.137 35.157-37.808 47.576-23.601 12.382-56.31 20.085-92.52 20.085v3c36.596 0 69.802-7.779 93.913-20.428 24.041-12.613 39.415-30.298 39.415-50.233h-3Zm-130.328 67.661c-36.211 0-68.92-7.703-92.52-20.085-23.672-12.419-37.809-29.314-37.809-47.576h-3c0 19.935 15.374 37.62 39.415 50.233 24.112 12.649 57.318 20.428 93.914 20.428v-3ZM25.778 69.161c0-18.262 14.137-35.157 37.809-47.576C87.187 9.203 119.896 1.5 156.107 1.5v-3c-36.596 0-69.802 7.779-93.914 20.428-24.041 12.613-39.415 30.298-39.415 50.233h3ZM156.107 1.5c36.21 0 68.919 7.703 92.52 20.085 23.671 12.419 37.808 29.314 37.808 47.575h3c0-19.934-15.374-37.62-39.415-50.232C225.909 6.278 192.703-1.5 156.107-1.5v3Z" fill="#202124" mask="url(#a)"/></mask><g mask="url(#b)"><mask id="c" fill="#fff"><path d="M287.935 69.16c0 38.197-59.021 69.161-131.828 69.161S24.278 107.357 24.278 69.161C24.278 30.963 83.3 0 156.107 0c72.807 0 131.828 30.964 131.828 69.16Z"/></mask><path d="M287.935 69.16c0 38.197-59.021 69.161-131.828 69.161S24.278 107.357 24.278 69.161C24.278 30.963 83.3 0 156.107 0c72.807 0 131.828 30.964 131.828 69.16Z" fill="#E3E3E3"/><path d="M286.435 69.16c0 18.262-14.137 35.157-37.808 47.576-23.601 12.382-56.31 20.085-92.52 20.085v3c36.596 0 69.802-7.779 93.913-20.428 24.041-12.613 39.415-30.298 39.415-50.233h-3Zm-130.328 67.661c-36.211 0-68.92-7.703-92.52-20.085-23.672-12.419-37.809-29.314-37.809-47.576h-3c0 19.935 15.374 37.62 39.415 50.233 24.112 12.649 57.318 20.428 93.914 20.428v-3ZM25.778 69.161c0-18.262 14.137-35.157 37.809-47.576C87.187 9.203 119.896 1.5 156.107 1.5v-3c-36.596 0-69.802 7.779-93.914 20.428-24.041 12.613-39.415 30.298-39.415 50.233h3ZM156.107 1.5c36.21 0 68.919 7.703 92.52 20.085 23.671 12.419 37.808 29.314 37.808 47.575h3c0-19.934-15.374-37.62-39.415-50.232C225.909 6.278 192.703-1.5 156.107-1.5v3Z" fill="#202124" mask="url(#c)"/><mask id="d" fill="#fff"><path d="M287.935 68.596c0 26.66-59.021 48.271-131.828 48.271S24.278 95.255 24.278 68.596c0-26.66 59.022-48.271 131.829-48.271 72.807 0 131.828 21.612 131.828 48.27Z"/></mask><path d="M287.935 68.596c0 26.66-59.021 48.271-131.828 48.271S24.278 95.255 24.278 68.596c0-26.66 59.022-48.271 131.829-48.271 72.807 0 131.828 21.612 131.828 48.27Z" fill="#E3E3E3"/><path d="M286.435 68.596c0 6.067-3.353 12.038-9.841 17.655-6.484 5.614-15.954 10.737-27.786 15.069-23.652 8.661-56.427 14.047-92.701 14.047v3c36.532 0 69.672-5.419 93.732-14.23 12.025-4.403 21.86-9.68 28.718-15.618 6.854-5.933 10.878-12.66 10.878-19.923h-3Zm-130.328 46.771c-36.275 0-69.05-5.386-92.701-14.047-11.832-4.332-21.302-9.455-27.786-15.069-6.488-5.617-9.842-11.588-9.842-17.655h-3c0 7.262 4.025 13.99 10.878 19.923 6.858 5.937 16.694 11.215 28.718 15.618 24.06 8.811 57.2 14.23 93.733 14.23v-3ZM25.778 68.596c0-6.068 3.354-12.038 9.842-17.655 6.484-5.614 15.954-10.737 27.786-15.07 23.652-8.66 56.426-14.046 92.701-14.046v-3c-36.533 0-69.672 5.42-93.733 14.23-12.024 4.402-21.86 9.68-28.718 15.617-6.853 5.934-10.878 12.662-10.878 19.924h3Zm130.329-46.771c36.274 0 69.049 5.386 92.701 14.047 11.832 4.332 21.302 9.455 27.786 15.069 6.488 5.617 9.841 11.587 9.841 17.655h3c0-7.262-4.024-13.99-10.878-19.924-6.858-5.936-16.693-11.215-28.718-15.617-24.06-8.81-57.2-14.23-93.732-14.23v3Z" fill="#202124" mask="url(#d)"/><path d="M293.394 66.338c0 5.139-.965 9.755-2.493 13.058-1.558 3.367-3.559 5.105-5.507 5.105-1.949 0-3.95-1.738-5.508-5.105-1.528-3.303-2.493-7.92-2.493-13.058 0-5.14.965-9.756 2.493-13.06 1.558-3.366 3.559-5.104 5.508-5.104 1.948 0 3.949 1.738 5.507 5.105 1.528 3.303 2.493 7.92 2.493 13.059Z" fill="#538FF7" stroke="#202124" stroke-width="1.5"/></g><mask id="e" fill="#fff"><path d="M287.934 69.16c0 38.197-59.021 69.161-131.828 69.161S24.277 107.357 24.277 69.161C24.277 30.963 83.3 0 156.106 0c72.807 0 131.828 30.964 131.828 69.16Z"/></mask><path d="M286.434 69.16c0 18.262-14.137 35.157-37.808 47.576-23.601 12.382-56.31 20.085-92.52 20.085v3c36.596 0 69.802-7.779 93.913-20.428 24.041-12.613 39.415-30.298 39.415-50.233h-3Zm-130.328 67.661c-36.211 0-68.92-7.703-92.52-20.085-23.672-12.419-37.809-29.314-37.809-47.576h-3c0 19.935 15.374 37.62 39.415 50.233 24.112 12.649 57.318 20.428 93.914 20.428v-3ZM25.777 69.161c0-18.262 14.137-35.157 37.809-47.576C87.186 9.203 119.895 1.5 156.106 1.5v-3c-36.596 0-69.802 7.779-93.914 20.428-24.041 12.613-39.415 30.298-39.415 50.233h3ZM156.106 1.5c36.21 0 68.919 7.703 92.52 20.085 23.671 12.419 37.808 29.314 37.808 47.575h3c0-19.934-15.374-37.62-39.415-50.232C225.908 6.278 192.702-1.5 156.106-1.5v3Z" fill="#202124" mask="url(#e)"/><path d="m4.565 66.3 29.768-16.175a2.823 2.823 0 0 1 2.417-.132l39.492 16.174c2.337.957 2.337 4.267 0 5.225L36.75 87.566a2.823 2.823 0 0 1-2.417-.132L4.565 71.26c-1.967-1.069-1.967-3.892 0-4.96Z" fill="#538FF7" stroke="#000" stroke-width="1.5"/><path fill="#F6BD41" stroke="#202124" stroke-width="1.129" d="M107.834 45.166h20.205v39.446h-20.205z"/><path d="M141.974 49.426a20.232 20.232 0 0 0-6.363 9.884 20.192 20.192 0 0 0 .214 11.745 20.23 20.23 0 0 0 6.719 9.647 20.316 20.316 0 0 0 22.461 1.796 20.256 20.256 0 0 0 8.172-8.457 20.193 20.193 0 0 0-2.618-22.33 20.308 20.308 0 0 0-28.585-2.285Z" fill="#65B867" stroke="#202124" stroke-width="1.129" stroke-miterlimit="10"/><mask id="f" style="mask-type:alpha" maskUnits="userSpaceOnUse" x="134" y="44" width="42" height="42"><path d="M140.899 50.59a20.13 20.13 0 0 0-5.528 10.317c-.78 3.909-.38 7.96 1.148 11.642a20.16 20.16 0 0 0 7.439 9.044 20.228 20.228 0 0 0 22.44 0 20.158 20.158 0 0 0 7.438-9.044 20.098 20.098 0 0 0 1.149-11.642 20.13 20.13 0 0 0-5.528-10.317 20.217 20.217 0 0 0-14.279-5.9 20.217 20.217 0 0 0-14.279 5.9Z" fill="#C4C4C4" stroke="#202124" stroke-width="1.129" stroke-miterlimit="10"/></mask><g mask="url(#f)" stroke="#202124" stroke-width="1.129"><path d="M168.582 45.798c.046 1.38-1.143 2.849-3.527 4.045-2.336 1.174-5.631 1.976-9.326 2.1-3.695.123-7.036-.459-9.446-1.473-2.458-1.036-3.743-2.423-3.789-3.802-.046-1.38 1.143-2.848 3.526-4.045 2.337-1.173 5.631-1.976 9.327-2.1 3.695-.122 7.036.459 9.445 1.473 2.459 1.036 3.743 2.423 3.79 3.802ZM167.69 83.05c.046 1.38-1.142 2.849-3.526 4.046-2.337 1.173-5.631 1.975-9.326 2.098-3.696.123-7.037-.457-9.446-1.472-2.459-1.036-3.743-2.423-3.789-3.802-.047-1.38 1.142-2.849 3.526-4.045 2.336-1.174 5.631-1.976 9.326-2.1 3.695-.122 7.036.459 9.446 1.473 2.458 1.036 3.743 2.423 3.789 3.802Z"/><path d="M175.883 76.722c.03.893-.436 1.833-1.466 2.779-1.029.944-2.567 1.841-4.527 2.627-3.915 1.572-9.397 2.656-15.513 2.86-6.116.204-11.659-.513-15.67-1.82-2.008-.653-3.602-1.446-4.692-2.32-1.092-.875-1.619-1.782-1.649-2.674-.03-.892.436-1.832 1.466-2.779 1.029-.944 2.566-1.84 4.526-2.627 3.915-1.571 9.398-2.656 15.514-2.86 6.116-.204 11.659.513 15.67 1.82 2.008.654 3.602 1.446 4.692 2.32 1.091.875 1.619 1.782 1.649 2.674ZM178.012 51.33c.03.892-.435 1.832-1.466 2.778-1.028.945-2.566 1.842-4.526 2.628-3.915 1.571-9.397 2.656-15.513 2.86-6.116.204-11.659-.513-15.67-1.82-2.008-.654-3.602-1.446-4.692-2.32-1.092-.875-1.619-1.782-1.649-2.675-.03-.892.436-1.832 1.466-2.778 1.029-.944 2.566-1.841 4.526-2.628 3.915-1.57 9.397-2.656 15.514-2.86 6.116-.204 11.658.514 15.67 1.82 2.008.654 3.602 1.447 4.692 2.32 1.091.876 1.619 1.783 1.648 2.675Z"/><path d="m155.291 84.96-1.941-.767c-18.627-7.367-17.261-34.172 2.018-39.592 19.651 5.786 20.26 33.396.884 40.03l-.961.33ZM155.334 44.442l-.096 40.593M134.716 64.909h40.464"/><path d="M155.238 85.034c10.431-11.425 10.476-28.923.13-40.433-9.955 11.575-10.091 28.856-.13 40.433Z"/></g><path d="M141.974 49.426a20.232 20.232 0 0 0-6.363 9.884 20.192 20.192 0 0 0 .214 11.745 20.23 20.23 0 0 0 6.719 9.647 20.318 20.318 0 0 0 22.461 1.796 20.256 20.256 0 0 0 8.172-8.457 20.193 20.193 0 0 0-2.618-22.33 20.308 20.308 0 0 0-28.585-2.285Z" stroke="#202124" stroke-width="1.129" stroke-miterlimit="10"/><path d="M189.471 79.945h16.769v4.668h-24.697v-5.23c1.286-1.283 3.655-3.663 7.107-7.14 3.641-3.668 6.072-6.167 7.284-7.492 1.671-1.78 2.835-3.25 3.453-4.399.675-1.18 1.002-2.553 1.002-4.1 0-1.672-.653-3.13-1.918-4.348-1.291-1.243-3.014-1.839-5.103-1.839-1.976 0-3.618.578-4.867 1.778-1.031.957-1.778 2.061-2.232 3.308l-4.762-1.945c.418-1.151 1.065-2.299 1.95-3.444 1.03-1.28 2.398-2.372 4.122-3.268 1.691-.88 3.655-1.328 5.905-1.328 2.441 0 4.576.505 6.422 1.498l.012.006c1.889.96 3.318 2.279 4.306 3.957l.004.006.004.006c1.027 1.646 1.543 3.474 1.543 5.498 0 3.888-2.005 7.906-6.172 12.06a430.88 430.88 0 0 0-4.54 4.465l-.004.005a289.197 289.197 0 0 1-4.876 4.86l-.008.007-.007.007-1.164 1.218-.215.225.076.302.058.232.107.427h.441ZM221.309 79.945h16.769v4.668h-24.697v-5.23c1.286-1.283 3.655-3.663 7.107-7.14 3.641-3.668 6.072-6.167 7.284-7.492 1.67-1.78 2.835-3.25 3.453-4.399.675-1.18 1.002-2.553 1.002-4.1 0-1.672-.653-3.13-1.918-4.348-1.291-1.243-3.014-1.839-5.103-1.839-1.976 0-3.618.578-4.867 1.778-1.031.957-1.778 2.061-2.232 3.308l-4.762-1.945c.418-1.151 1.065-2.299 1.95-3.444 1.03-1.28 2.398-2.372 4.122-3.268 1.691-.88 3.655-1.328 5.905-1.328 2.441 0 4.576.505 6.422 1.498l.012.006c1.889.96 3.318 2.279 4.306 3.957l.004.006.003.006c1.028 1.646 1.543 3.474 1.543 5.498 0 3.888-2.004 7.906-6.171 12.06a430.88 430.88 0 0 0-4.54 4.465l-.004.005a289.048 289.048 0 0 1-4.877 4.86l-.007.007-.007.007-1.164 1.218-.215.225.076.302.058.232.107.427h.441Z" fill="#EC5E4F" stroke="#202124" stroke-width="1.129"/></svg>